<?xml version="1.0" encoding="utf-8"?>
<!-- Svg Vector Icons : http://www.onlinewebfonts.com/icon -->
<!DOCTYPE svg PUBLIC "-//W3C//DTD SVG 1.1//EN" "http://www.w3.org/Graphics/SVG/1.1/DTD/svg11.dtd">
<svg version="1.1" xmlns="http://www.w3.org/2000/svg" xmlns:xlink="http://www.w3.org/1999/xlink" x="0px" y="0px" viewBox="0 0 256 256" enable-background="new 0 0 256 256" xml:space="preserve">
<metadata> Svg Vector Icons : http://www.onlinewebfonts.com/icon </metadata>
<g><g><g><path fill="#000000" d="M140.7,10.1c-0.6,0.1-3.2,0.5-5.6,0.9c-8.9,1.5-21.1,6.4-30,11.9C94.8,29.3,80.7,42.2,72,53.2c-5,6.3-13.4,18.9-17.7,26.4c-32.2,57.7-33.6,110.5-3.8,141.9c11,11.6,27.9,20.6,44.2,23.6c7,1.3,20,1.2,27-0.2c32.7-6.6,62.8-34.1,85-77.7c27.5-54.1,27.1-102.9-1-132.6c-10.8-11.3-26.4-19.9-42.8-23.4c-3.4-0.7-6.7-1-12.7-1.2C145.6,10,141.4,10,140.7,10.1z M185.2,28.3c0,0.2-1.7,1.9-3.8,3.6c-22.9,18.9-40.8,44.2-47.4,66.8c-3.2,11.2-3.9,20-2.8,37.2c0.9,13.5,0.7,24.1-0.4,30.4c-2.2,11.6-6.1,22-12,31.6c-7.4,12.1-19.7,23.9-30.9,29.7c-7,3.7-14,5.8-14,4.3c0-0.2,2.5-2.5,5.5-5c13.9-11.6,23-23.3,29.1-37.6c6.7-15.5,8.1-28,5.7-50.8c-1.4-13.5-1.2-25.4,0.6-33.8c5.5-25.9,22.3-49.6,46.9-66C171.5,32.3,185.2,26.2,185.2,28.3z"/></g></g></g>
</svg>